# xmcd CD database file
#
# Track frame offsets:
#	225
#	11181
#	21641
#	32318
#	45057
#	58479
#	67702
#	77423
#	90795
#	104615
#	114016
#	126582
#	133556
#	142502
#	155650
#	170288
#
# Disc length: 2422 seconds
#
# Revision: 0
# Processed by: cddbd v1.5.1PL2 Copyright (c) Steve Scherf et al.
# Submitted via: CDex 1.51
#
DISCID=be097310
DTITLE=Nashville Guitars - 16 Super Hits
DYEAR=1900
DGENRE=Instrumental Country
TTITLE0=500 Miles from Home
TTITLE1=Oh, My Darling Clementine
TTITLE2=Spanish Two Step
TTITLE3=Swanee River
TTITLE4=Willow Garden
TTITLE5=Spanish Two Step
TTITLE6=Home Sweet Home
TTITLE7=Barbara Allen
TTITLE8=Tom Dooley
TTITLE9=Eighth of January
TTITLE10=When the Work's All Done This Fall
TTITLE11=John Henry
TTITLE12=Darlin' Nellie Gray
TTITLE13=Don't Let Your Deal Go Down
TTITLE14=Under the Double Eagle
TTITLE15=Twinkle Little Star
EXTD=
EXTT0=
EXTT1=
EXTT2=
EXTT3=
EXTT4=
EXTT5=
EXTT6=
EXTT7=
EXTT8=
EXTT9=
EXTT10=
EXTT11=
EXTT12=
EXTT13=
EXTT14=
EXTT15=
PLAYORDER=
